<svg width="171" height="28" viewBox="0 0 171 28" fill="none" xmlns="http://www.w3.org/2000/svg">
<g clip-path="url(#clip0_125_535)">
<g clip-path="url(#clip1_125_535)">
<path d="M166.299 11.003C165.37 11.003 164.461 10.7272 163.688 10.2106C162.915 9.69396 162.313 8.95966 161.957 8.10054C161.601 7.24142 161.508 6.29607 161.689 5.38404C161.871 4.472 162.318 3.63424 162.976 2.9767C163.633 2.31916 164.471 1.87137 165.382 1.68995C166.294 1.50854 167.239 1.60165 168.098 1.95751C168.957 2.31336 169.691 2.91599 170.208 3.68918C170.724 4.46236 171 5.37139 171 6.30129C171 7.54825 170.505 8.74414 169.623 9.62588C168.742 10.5076 167.546 11.003 166.299 11.003ZM166.299 2.63169C165.574 2.63169 164.865 2.84691 164.261 3.25013C163.658 3.65335 163.188 4.22646 162.91 4.89699C162.632 5.56752 162.56 6.30536 162.701 7.01719C162.843 7.72903 163.192 8.38289 163.705 8.89609C164.218 9.40929 164.872 9.75879 165.584 9.90038C166.295 10.042 167.033 9.9693 167.703 9.69156C168.374 9.41382 168.947 8.94347 169.35 8.34001C169.753 7.73655 169.968 7.02707 169.968 6.30129C169.968 5.32805 169.582 4.39467 168.894 3.70649C168.206 3.0183 167.272 2.63169 166.299 2.63169Z" fill="#212122"/>
<path d="M156.777 21.9795C157.28 21.5719 157.741 21.1151 158.153 20.616C158.634 20.0404 159.048 19.4126 159.389 18.7445C159.769 17.9988 160.061 17.2119 160.261 16.3994C160.485 15.4896 160.595 14.5555 160.588 13.6185C160.588 11.6805 160.244 9.90536 159.556 8.29303C158.896 6.72415 157.912 5.31205 156.67 4.14867C155.394 2.97338 153.9 2.05942 152.273 1.4584C148.696 0.174024 144.784 0.174024 141.207 1.4584C139.565 2.06068 138.059 2.98115 136.773 4.16702C135.517 5.34143 134.521 6.7656 133.848 8.34808C133.145 9.97187 132.793 11.765 132.794 13.7275V13.8089C132.387 12.7153 131.77 11.7121 130.977 10.856C130.176 10.0045 129.197 9.33909 128.111 8.90654C126.943 8.44826 125.697 8.2197 124.442 8.2334C123.127 8.22098 121.82 8.45433 120.59 8.92145C119.439 9.35813 118.386 10.021 117.495 10.8709C116.34 11.9987 115.499 13.4081 115.054 14.9602V1.18662H106.066L100.466 17.6895H100.32L94.4622 1.18662H85.6209V8.82398H80.6053L77.4446 20.2743H77.3713L74.0283 8.82398H68.0313L64.7972 20.2743H64.6826L61.5632 8.82398H55.1306L56.7849 13.6151C56.2848 12.5415 55.5741 11.5795 54.6949 10.7861C53.7612 9.95484 52.6749 9.313 51.4964 8.89622C48.9837 8.02316 46.2501 8.02316 43.7374 8.89622C42.5556 9.30578 41.4674 9.9471 40.5365 10.7826C39.613 11.6269 38.8762 12.655 38.3732 13.8009C38.2586 14.0646 38.152 14.3376 38.0591 14.6162C38.0028 14.0837 37.9077 13.5559 37.7748 13.0371C37.5616 12.1777 37.1797 11.3693 36.6513 10.6588C36.1041 9.94641 35.4019 9.36798 34.598 8.96732C33.7497 8.53156 32.7198 8.31367 31.5084 8.31367C30.9056 8.30972 30.3056 8.39552 29.728 8.56825C29.1911 8.7294 28.6733 8.94857 28.1838 9.2219C27.7251 9.47809 27.3084 9.80293 26.9479 10.1852C26.6183 10.5318 26.3315 10.9168 26.0938 11.3319H26.0216V8.82398H20.2448V22.71L12.0684 13.0371L23.1498 1.18662H15.3724L6.1781 11.6553H6.06346V1.18662H0V26.9231H6.06919V15.0726H6.14371L15.7015 26.9231H26.2406V17.1081C26.2375 16.6107 26.3031 16.1152 26.4355 15.6357C26.5579 15.185 26.761 14.7603 27.0351 14.3823C27.2979 14.0214 27.6425 13.7279 28.0405 13.5257C28.4752 13.3119 28.9548 13.2057 29.4391 13.216C29.9009 13.1993 30.3588 13.3062 30.7655 13.5257C31.1095 13.7244 31.3925 14.0135 31.5841 14.3616C31.7876 14.7425 31.9285 15.1538 32.0014 15.5795C32.0879 16.0593 32.1305 16.546 32.1286 17.0336V26.9208H38.129V21.1642C38.2058 21.3843 38.2884 21.6022 38.3824 21.8132C38.8818 22.9697 39.6153 24.0103 40.5365 24.8693C41.4658 25.7205 42.5518 26.3826 43.7339 26.8188C46.2384 27.7393 48.9885 27.7393 51.4929 26.8188C52.6725 26.3766 53.7578 25.7152 54.6915 24.8693C55.6237 24.0155 56.3659 22.975 56.8697 21.8155C57.4167 20.5491 57.6902 19.1814 57.6722 17.8019C57.6753 17.0124 57.5899 16.225 57.4177 15.4545L61.3786 26.922H67.3755L70.8641 15.6529H70.9364L74.4983 26.922H80.4941L85.6187 12.169V26.9231H91.4654L91.3233 8.7093H91.4379L97.9427 26.9208H102.299L108.989 8.7093H109.097L108.952 26.9208H115.054V20.952C115.501 22.5146 116.374 23.9216 117.576 25.0149C118.503 25.8375 119.584 26.4678 120.757 26.8692C121.996 27.2971 123.298 27.5119 124.609 27.5045C126.45 27.5045 128.067 27.1716 129.46 26.5057C130.816 25.8715 131.977 24.886 132.824 23.6515L128.681 21.0346C128.254 21.6033 127.706 22.0692 127.076 22.3981C126.428 22.752 125.631 22.929 124.684 22.929C124.159 22.9304 123.637 22.8443 123.14 22.6744C122.656 22.5131 122.202 22.2737 121.795 21.9657C121.404 21.6728 121.071 21.3092 120.814 20.8935C120.556 20.4747 120.399 20.0016 120.355 19.5117H133.475C133.5 19.2832 133.512 19.0535 133.512 18.8236V18.6115C133.596 18.8622 133.686 19.1088 133.784 19.3511C134.404 20.9195 135.359 22.3338 136.582 23.4955C137.83 24.6505 139.31 25.5241 140.925 26.0573C142.62 26.6399 144.485 26.9308 146.521 26.93H162.185V21.9795L156.771 22.0884L156.777 21.9795ZM51.6569 19.5071C51.4798 20.0563 51.2027 20.5679 50.8395 21.0162C50.4736 21.4663 50.0149 21.832 49.4947 22.0884C48.9123 22.3522 48.2803 22.4887 47.6409 22.4887C47.0016 22.4887 46.3696 22.3522 45.7872 22.0884C45.2667 21.8324 44.8079 21.4666 44.4424 21.0162C44.0817 20.5674 43.8069 20.0558 43.6319 19.5071C43.2681 18.3975 43.2681 17.2006 43.6319 16.0909C43.8035 15.5536 44.0758 15.0539 44.4344 14.6185C44.7992 14.1851 45.2511 13.8335 45.7608 13.5864C46.3432 13.3234 46.975 13.1873 47.614 13.1873C48.2531 13.1873 48.8848 13.3234 49.4672 13.5864C49.9801 13.8368 50.4374 14.1878 50.812 14.6185C51.1808 15.0523 51.4643 15.5519 51.6477 16.0909C51.8404 16.64 51.9388 17.2177 51.9389 17.7996C51.9358 18.3801 51.8407 18.9565 51.6569 19.5071ZM120.359 15.7997C120.384 15.3365 120.508 14.8841 120.722 14.4729C120.939 14.0507 121.236 13.6742 121.595 13.364C121.971 13.0418 122.402 12.7894 122.867 12.6186C123.381 12.4317 123.925 12.3397 124.472 12.3468C125.658 12.3468 126.549 12.6858 127.143 13.364C127.734 14.0361 128.051 14.9051 128.033 15.7997H120.359ZM153.467 16.9808C153.128 17.8987 152.609 18.7394 151.939 19.4532C151.285 20.1437 150.493 20.6887 149.615 21.0529C147.743 21.8037 145.653 21.8037 143.782 21.0529C142.912 20.6891 142.13 20.1437 141.489 19.4532C140.831 18.7375 140.324 17.8966 139.998 16.9808C139.636 15.9604 139.457 14.8837 139.471 13.8009C139.46 12.7439 139.645 11.694 140.017 10.7046C140.356 9.79822 140.875 8.96974 141.543 8.26895C142.197 7.59116 142.982 7.05319 143.85 6.68758C144.765 6.30626 145.748 6.11471 146.739 6.12453C147.748 6.11368 148.749 6.30513 149.683 6.68758C150.555 7.04686 151.341 7.58567 151.991 8.26895C152.647 8.97167 153.154 9.80028 153.481 10.7046C154.189 12.7359 154.183 14.948 153.463 16.9751L153.467 16.9808Z" fill="#212122"/>
<path d="M167.12 6.62468C167.405 6.58394 167.663 6.43332 167.839 6.20497C168.007 5.97161 168.093 5.68951 168.084 5.40224C168.092 5.17705 168.046 4.95327 167.949 4.74974C167.865 4.58212 167.739 4.43884 167.583 4.33347C167.421 4.22665 167.239 4.15156 167.048 4.11215C166.835 4.06773 166.619 4.04582 166.402 4.04678H164.674V8.51223H165.657V6.72559H166.142L167.076 8.51109H168.255L167.12 6.62468ZM166.985 5.67861C166.933 5.74533 166.864 5.79652 166.786 5.82654C166.7 5.85962 166.61 5.87897 166.518 5.88388C166.419 5.88388 166.326 5.89305 166.238 5.89305H165.657V4.87818H166.299C166.39 4.87812 166.48 4.88425 166.57 4.89653C166.656 4.90708 166.739 4.93148 166.817 4.96877C166.887 5.00521 166.948 5.05836 166.993 5.12358C167.043 5.20524 167.067 5.29992 167.062 5.39536C167.069 5.49539 167.042 5.59488 166.987 5.67861H166.985Z" fill="#212122"/>
</g>
</g>
<defs>
<clipPath id="clip0_125_535">
<rect width="171" height="27.0094" fill="white" transform="translate(0 0.495239)"/>
</clipPath>
<clipPath id="clip1_125_535">
<rect width="171" height="27.0094" fill="white" transform="translate(0 0.495239)"/>
</clipPath>
</defs>
</svg>
